<svg width="18" height="15" viewBox="0 0 18 15" fill="none" xmlns="http://www.w3.org/2000/svg">
<path d="M16.9905 8.47172C17.2479 8.2139 17.3926 7.86443 17.3926 7.50005C17.3926 7.13567 17.2479 6.7862 16.9905 6.52838L11.8058 1.34097C11.5478 1.08302 11.198 0.93811 10.8332 0.93811C10.4684 0.93811 10.1186 1.08302 9.86062 1.34097C9.60268 1.59891 9.45776 1.94876 9.45776 2.31355C9.45776 2.67834 9.60268 3.02819 9.86062 3.28613L12.6986 6.12505L2.12487 6.12505C1.7602 6.12505 1.41046 6.26992 1.1526 6.52778C0.894739 6.78564 0.749872 7.13538 0.749872 7.50005C0.749872 7.86472 0.894739 8.21446 1.1526 8.47232C1.41046 8.73019 1.7602 8.87505 2.12487 8.87505L12.6986 8.87505L9.86062 11.7131C9.7329 11.8408 9.63159 11.9924 9.56246 12.1593C9.49334 12.3262 9.45776 12.505 9.45776 12.6856C9.45776 12.8663 9.49334 13.0451 9.56246 13.212C9.63159 13.3789 9.7329 13.5305 9.86062 13.6582C9.98834 13.7859 10.14 13.8873 10.3068 13.9564C10.4737 14.0255 10.6526 14.0611 10.8332 14.0611C11.0138 14.0611 11.1927 14.0255 11.3596 13.9564C11.5264 13.8873 11.6781 13.7859 11.8058 13.6582L16.9905 8.47172Z" fill="#7687FF"/>
</svg>
