<svg width="66" height="65" viewBox="0 0 66 65" fill="none" xmlns="http://www.w3.org/2000/svg">
<rect x="0.333374" width="65" height="65" rx="32.5" fill="#7687FF" fill-opacity="0.4"/>
<path d="M19.7334 22.937C19.9714 22.8308 20.2564 22.7177 20.5885 22.5977C22.2367 22.0255 23.9555 21.7396 25.6834 21.7502C27.4112 21.7396 29.1301 22.0255 30.7783 22.5977C31.1103 22.7177 31.3954 22.8308 31.6334 22.937V43.3365C29.7051 42.688 27.6993 42.3638 25.6834 42.3747C23.2014 42.3747 21.1801 42.8397 19.7334 43.3365V22.937ZM33.3334 19.6596C32.8406 19.4198 32.3367 19.2089 31.8238 19.0277C29.8377 18.3358 27.7661 17.9891 25.6834 18.0003C23.0892 18.0003 20.9999 18.5084 19.543 19.0277C18.9631 19.2333 18.3948 19.4768 17.8413 19.7571C17.6356 19.8621 17.4332 19.9747 17.2344 20.0946L17.1919 20.1208L17.1766 20.1302L17.1715 20.134C17.1681 20.1377 16.7499 20.4096 17.1664 20.1377C16.9126 20.3037 16.7024 20.5396 16.5563 20.8223C16.4103 21.105 16.3334 21.4248 16.3334 21.7502V46.1246C16.3334 46.4555 16.4129 46.7806 16.5637 47.0667C16.7145 47.3528 16.9313 47.5897 17.192 47.7535C17.4528 47.9173 17.7482 48.0021 18.0482 47.9992C18.3483 47.9963 18.6423 47.9058 18.9004 47.7371L18.8919 47.7427L18.897 47.7408L18.8987 47.7389L18.9616 47.7014C19.025 47.6639 19.1282 47.6077 19.271 47.5327C19.56 47.3864 20.002 47.1802 20.5885 46.9702C22.2367 46.3987 23.9556 46.1134 25.6834 46.1246C27.4112 46.1134 29.13 46.3987 30.7783 46.9702C31.2272 47.1288 31.6671 47.3166 32.0958 47.5327C32.2241 47.5983 32.3505 47.6684 32.4749 47.7427M32.4749 47.7427L32.4715 47.7408L32.4698 47.7389C33.0036 48.0858 33.6666 48.0858 34.2004 47.7389L34.2633 47.7014C34.3267 47.6639 34.4299 47.6077 34.5727 47.5327C35.0014 47.3166 35.4413 47.1288 35.8902 46.9702C37.5379 46.3989 39.2562 46.1136 40.9834 46.1246C42.7112 46.1134 44.43 46.3987 46.0783 46.9702C46.5272 47.1288 46.9671 47.3166 47.3958 47.5327C47.5218 47.5972 47.6459 47.666 47.7681 47.7389C48.0263 47.9073 48.3202 47.9974 48.6202 47.9999C48.9201 48.0025 49.2153 47.9175 49.4759 47.7536C49.7364 47.5896 49.9529 47.3526 50.1035 47.0665C50.2542 46.7804 50.3334 46.4554 50.3334 46.1246V21.7502C50.3333 21.4248 50.2565 21.105 50.1104 20.8223C49.9644 20.5396 49.7541 20.3037 49.5004 20.1377L49.497 20.1358L49.4902 20.1302L49.4732 20.1208L49.4324 20.0946C49.2335 19.9747 49.0311 19.8621 48.8255 19.7571C48.2725 19.4769 47.7048 19.2334 47.1255 19.0277C45.1389 18.3356 43.0667 17.9889 40.9834 18.0003C38.3909 18.0003 36.2999 18.5084 34.843 19.0277C34.33 19.2089 33.8261 19.4198 33.3334 19.6596M46.9334 22.937V43.3365C45.0051 42.688 42.9993 42.3638 40.9834 42.3747C38.5014 42.3747 36.4801 42.8397 35.0334 43.3365V22.937C35.2714 22.8308 35.5564 22.7177 35.8885 22.5977C37.5367 22.0255 39.2555 21.7396 40.9834 21.7502C42.7112 21.7396 44.4301 22.0255 46.0783 22.5977C46.4103 22.7177 46.6954 22.8308 46.9334 22.937ZM47.7664 23.3645L47.7749 23.3683H47.7732L47.7664 23.3645ZM47.7681 47.7389L47.7732 47.7427L47.7698 47.7389" fill="#9FABFF"/>
</svg>
